<mxfile host="app.diagrams.net" modified="2022-09-21T00:32:01.912Z" agent="5.0 (Windows NT 10.0; Win64; x64) AppleWebKit/537.36 (KHTML, like Gecko) Chrome/105.0.0.0 Safari/537.36" etag="M6FuQqFemMGcl8B0Yc5o" version="20.3.3" type="github">
  <diagram id="JPICbCCzc06cyJLkIHkS" name="第 1 页">
    <mxGraphModel dx="782" dy="446" grid="1" gridSize="10" guides="1" tooltips="1" connect="1" arrows="1" fold="1" page="1" pageScale="1" pageWidth="827" pageHeight="1169" math="0" shadow="0">
      <root>
        <mxCell id="0" />
        <mxCell id="1" parent="0" />
        <mxCell id="DjHEsgGU8nK3D3AKh04k-1" value="&lt;font style=&quot;font-size: 14px;&quot; face=&quot;Times New Roman&quot;&gt;Begin&lt;/font&gt;" style="rounded=1;whiteSpace=wrap;html=1;" parent="1" vertex="1">
          <mxGeometry x="294" y="40" width="106" height="30" as="geometry" />
        </mxCell>
        <mxCell id="DjHEsgGU8nK3D3AKh04k-2" style="edgeStyle=orthogonalEdgeStyle;rounded=0;orthogonalLoop=1;jettySize=auto;html=1;exitX=0.5;exitY=1;exitDx=0;exitDy=0;" parent="1" source="DjHEsgGU8nK3D3AKh04k-1" target="DjHEsgGU8nK3D3AKh04k-1" edge="1">
          <mxGeometry relative="1" as="geometry" />
        </mxCell>
        <mxCell id="DjHEsgGU8nK3D3AKh04k-3" value="Population initialization" style="rounded=0;whiteSpace=wrap;html=1;fontFamily=Times New Roman;fontSize=14;" parent="1" vertex="1">
          <mxGeometry x="270.5" y="100" width="153" height="40" as="geometry" />
        </mxCell>
        <mxCell id="DjHEsgGU8nK3D3AKh04k-4" value="Fitness function&lt;br&gt;calculation" style="rounded=0;whiteSpace=wrap;html=1;fontFamily=Times New Roman;fontSize=14;strokeWidth=2;" parent="1" vertex="1">
          <mxGeometry x="270.5" y="170" width="153" height="40" as="geometry" />
        </mxCell>
        <mxCell id="DjHEsgGU8nK3D3AKh04k-5" value="Crossover&lt;br&gt;Mutation&lt;br&gt;Repair" style="rounded=0;whiteSpace=wrap;html=1;fontFamily=Times New Roman;fontSize=14;" parent="1" vertex="1">
          <mxGeometry x="270.5" y="240" width="153" height="60" as="geometry" />
        </mxCell>
        <mxCell id="DjHEsgGU8nK3D3AKh04k-6" value="Survivor selection" style="rounded=0;whiteSpace=wrap;html=1;fontFamily=Times New Roman;fontSize=14;" parent="1" vertex="1">
          <mxGeometry x="270.5" y="330" width="153" height="40" as="geometry" />
        </mxCell>
        <mxCell id="DjHEsgGU8nK3D3AKh04k-21" style="edgeStyle=orthogonalEdgeStyle;rounded=0;orthogonalLoop=1;jettySize=auto;html=1;fontFamily=Times New Roman;fontSize=14;entryX=0;entryY=0.5;entryDx=0;entryDy=0;" parent="1" source="DjHEsgGU8nK3D3AKh04k-8" target="DjHEsgGU8nK3D3AKh04k-4" edge="1">
          <mxGeometry relative="1" as="geometry">
            <mxPoint x="170" y="190" as="targetPoint" />
            <Array as="points">
              <mxPoint x="230" y="435" />
              <mxPoint x="230" y="190" />
            </Array>
          </mxGeometry>
        </mxCell>
        <mxCell id="DjHEsgGU8nK3D3AKh04k-8" value="Terminate?" style="rhombus;whiteSpace=wrap;html=1;fontFamily=Times New Roman;fontSize=14;" parent="1" vertex="1">
          <mxGeometry x="275.25" y="400" width="143.5" height="70" as="geometry" />
        </mxCell>
        <mxCell id="DjHEsgGU8nK3D3AKh04k-10" value="&lt;font style=&quot;font-size: 14px;&quot; face=&quot;Times New Roman&quot;&gt;End&lt;/font&gt;" style="rounded=1;whiteSpace=wrap;html=1;" parent="1" vertex="1">
          <mxGeometry x="294" y="500" width="106" height="30" as="geometry" />
        </mxCell>
        <mxCell id="DjHEsgGU8nK3D3AKh04k-11" value="" style="endArrow=classic;html=1;rounded=0;fontFamily=Times New Roman;fontSize=14;" parent="1" source="DjHEsgGU8nK3D3AKh04k-1" target="DjHEsgGU8nK3D3AKh04k-3" edge="1">
          <mxGeometry width="50" height="50" relative="1" as="geometry">
            <mxPoint x="520" y="410" as="sourcePoint" />
            <mxPoint x="570" y="360" as="targetPoint" />
          </mxGeometry>
        </mxCell>
        <mxCell id="DjHEsgGU8nK3D3AKh04k-12" value="" style="endArrow=classic;html=1;rounded=0;fontFamily=Times New Roman;fontSize=14;exitX=0.5;exitY=1;exitDx=0;exitDy=0;" parent="1" source="DjHEsgGU8nK3D3AKh04k-3" target="DjHEsgGU8nK3D3AKh04k-4" edge="1">
          <mxGeometry width="50" height="50" relative="1" as="geometry">
            <mxPoint x="357" y="80" as="sourcePoint" />
            <mxPoint x="357" y="110" as="targetPoint" />
          </mxGeometry>
        </mxCell>
        <mxCell id="DjHEsgGU8nK3D3AKh04k-13" value="" style="endArrow=classic;html=1;rounded=0;fontFamily=Times New Roman;fontSize=14;exitX=0.5;exitY=1;exitDx=0;exitDy=0;" parent="1" source="DjHEsgGU8nK3D3AKh04k-4" target="DjHEsgGU8nK3D3AKh04k-5" edge="1">
          <mxGeometry width="50" height="50" relative="1" as="geometry">
            <mxPoint x="367" y="90" as="sourcePoint" />
            <mxPoint x="367" y="120" as="targetPoint" />
          </mxGeometry>
        </mxCell>
        <mxCell id="DjHEsgGU8nK3D3AKh04k-14" value="" style="endArrow=classic;html=1;rounded=0;fontFamily=Times New Roman;fontSize=14;exitX=0.5;exitY=1;exitDx=0;exitDy=0;" parent="1" source="DjHEsgGU8nK3D3AKh04k-5" target="DjHEsgGU8nK3D3AKh04k-6" edge="1">
          <mxGeometry width="50" height="50" relative="1" as="geometry">
            <mxPoint x="377" y="100" as="sourcePoint" />
            <mxPoint x="377" y="130" as="targetPoint" />
          </mxGeometry>
        </mxCell>
        <mxCell id="DjHEsgGU8nK3D3AKh04k-15" value="" style="endArrow=classic;html=1;rounded=0;fontFamily=Times New Roman;fontSize=14;exitX=0.5;exitY=1;exitDx=0;exitDy=0;entryX=0.5;entryY=0;entryDx=0;entryDy=0;" parent="1" source="DjHEsgGU8nK3D3AKh04k-6" target="DjHEsgGU8nK3D3AKh04k-8" edge="1">
          <mxGeometry width="50" height="50" relative="1" as="geometry">
            <mxPoint x="387" y="110" as="sourcePoint" />
            <mxPoint x="387" y="140" as="targetPoint" />
          </mxGeometry>
        </mxCell>
        <mxCell id="DjHEsgGU8nK3D3AKh04k-16" value="" style="endArrow=classic;html=1;rounded=0;fontFamily=Times New Roman;fontSize=14;exitX=0.5;exitY=1;exitDx=0;exitDy=0;" parent="1" source="DjHEsgGU8nK3D3AKh04k-8" target="DjHEsgGU8nK3D3AKh04k-10" edge="1">
          <mxGeometry width="50" height="50" relative="1" as="geometry">
            <mxPoint x="357" y="380" as="sourcePoint" />
            <mxPoint x="357" y="410" as="targetPoint" />
          </mxGeometry>
        </mxCell>
        <mxCell id="DjHEsgGU8nK3D3AKh04k-19" value="Yes" style="text;html=1;strokeColor=none;fillColor=none;align=center;verticalAlign=middle;whiteSpace=wrap;rounded=0;fontFamily=Times New Roman;fontSize=14;" parent="1" vertex="1">
          <mxGeometry x="330" y="468" width="60" height="30" as="geometry" />
        </mxCell>
        <mxCell id="DjHEsgGU8nK3D3AKh04k-24" value="No" style="text;html=1;strokeColor=none;fillColor=none;align=center;verticalAlign=middle;whiteSpace=wrap;rounded=0;fontFamily=Times New Roman;fontSize=14;" parent="1" vertex="1">
          <mxGeometry x="211" y="290" width="60" height="30" as="geometry" />
        </mxCell>
        <mxCell id="DjHEsgGU8nK3D3AKh04k-25" value="" style="shape=flexArrow;endArrow=classic;html=1;rounded=0;fontFamily=Times New Roman;fontSize=14;strokeWidth=1;" parent="1" edge="1">
          <mxGeometry width="50" height="50" relative="1" as="geometry">
            <mxPoint x="423.5" y="189.5" as="sourcePoint" />
            <mxPoint x="480" y="190" as="targetPoint" />
          </mxGeometry>
        </mxCell>
        <mxCell id="DjHEsgGU8nK3D3AKh04k-26" value="" style="rounded=0;whiteSpace=wrap;html=1;fontFamily=Times New Roman;fontSize=14;strokeWidth=1;dashed=1;" parent="1" vertex="1">
          <mxGeometry x="480" y="170" width="170" height="180" as="geometry" />
        </mxCell>
        <mxCell id="DjHEsgGU8nK3D3AKh04k-27" value="Population decode" style="rounded=0;whiteSpace=wrap;html=1;fontFamily=Times New Roman;fontSize=14;" parent="1" vertex="1">
          <mxGeometry x="499.25" y="180" width="131.5" height="30" as="geometry" />
        </mxCell>
        <mxCell id="DjHEsgGU8nK3D3AKh04k-28" value="APG procedure" style="rounded=0;whiteSpace=wrap;html=1;fontFamily=Times New Roman;fontSize=14;" parent="1" vertex="1">
          <mxGeometry x="499.25" y="240" width="131.5" height="30" as="geometry" />
        </mxCell>
        <mxCell id="DjHEsgGU8nK3D3AKh04k-29" value="Calculating the TTC" style="rounded=0;whiteSpace=wrap;html=1;fontFamily=Times New Roman;fontSize=14;" parent="1" vertex="1">
          <mxGeometry x="499.25" y="300" width="131.5" height="30" as="geometry" />
        </mxCell>
        <mxCell id="DjHEsgGU8nK3D3AKh04k-30" value="" style="endArrow=classic;html=1;rounded=0;fontFamily=Times New Roman;fontSize=14;exitX=0.5;exitY=1;exitDx=0;exitDy=0;" parent="1" source="DjHEsgGU8nK3D3AKh04k-27" target="DjHEsgGU8nK3D3AKh04k-28" edge="1">
          <mxGeometry width="50" height="50" relative="1" as="geometry">
            <mxPoint x="357" y="220" as="sourcePoint" />
            <mxPoint x="357" y="250" as="targetPoint" />
          </mxGeometry>
        </mxCell>
        <mxCell id="DjHEsgGU8nK3D3AKh04k-31" value="" style="endArrow=classic;html=1;rounded=0;fontFamily=Times New Roman;fontSize=14;" parent="1" source="DjHEsgGU8nK3D3AKh04k-28" target="DjHEsgGU8nK3D3AKh04k-29" edge="1">
          <mxGeometry width="50" height="50" relative="1" as="geometry">
            <mxPoint x="575" y="220" as="sourcePoint" />
            <mxPoint x="575" y="250" as="targetPoint" />
          </mxGeometry>
        </mxCell>
      </root>
    </mxGraphModel>
  </diagram>
</mxfile>
